<svg xmlns="http://www.w3.org/2000/svg" width="128" height="128" viewBox="0 0 128 128" version="1.1">
	<path d="M 52 4.410 C 35.552 8.126, 21.067 18.040, 12.485 31.456 C 4.943 43.247, 2.699 51.218, 2.901 65.500 C 3.162 83.849, 7.198 93.273, 20.514 106.619 C 27.664 113.786, 31.205 116.498, 37.056 119.289 C 47.433 124.239, 52.012 125.273, 63.500 125.261 C 81.626 125.241, 95.154 119.794, 107.592 107.506 C 126.785 88.544, 131.468 61.534, 119.771 37.255 C 114.860 27.061, 102.948 15.475, 91.944 10.189 C 78.346 3.656, 64.319 1.627, 52 4.410 M 55.251 11.109 C 36.856 14.174, 19.623 28.317, 12.898 45.867 C 10.244 52.791, 9.215 68.933, 10.912 77.011 C 14.517 94.174, 31.018 111.158, 49.154 116.374 C 55.705 118.258, 69.426 118.515, 77.201 116.898 C 95.286 113.138, 111.964 96.867, 117.545 77.535 C 119.857 69.525, 119.111 54.971, 115.953 46.500 C 109.224 28.452, 92.731 14.926, 73.206 11.444 C 64.551 9.901, 62.707 9.866, 55.251 11.109 M 71.422 39.876 C 61.479 47.919, 51.589 55.962, 49.444 57.750 L 45.544 61 56.022 60.984 L 66.500 60.968 78.350 43.417 C 84.867 33.764, 90.042 25.728, 89.850 25.559 C 89.657 25.390, 81.365 31.833, 71.422 39.876 M 47.756 83.750 C 41.496 92.963, 35.970 101.175, 35.475 102 C 34.409 103.778, 38.192 100.885, 59.500 83.627 C 82.459 65.032, 81.300 67, 69.291 67 L 59.137 67 47.756 83.750" stroke="none" fill="black" fill-rule="evenodd"/>
</svg>